# xmcd CD database file
#
# Track frame offsets:
#	150
#	14517
#	28817
#	55782
#	68825
#	79865
#	92832
#	108141
#	127176
#	141640
#	154914
#	168827
#	182182
#	196574
#	210535
#	225218
#	243232
#	259137
#	285710
#	309569
#	320829
#
# Disc length: 4547 seconds
#
# Revision: 0
# Processed by: cddbd v1.5.2PL0 Copyright (c) Steve Scherf et al.
# Submitted via: CDex 1.70beta2
#
DISCID=2911c115
DTITLE=Count Basie - Complete 1952-1956 - Small Group Studio recording
DYEAR=1900
DGENRE=Jazz
TTITLE0=01-Jive At Five
TTITLE1=02-Blues For The Count And Oscar
TTITLE2=03-Extended Blues
TTITLE3=04-I Want A Little Girl
TTITLE4=05-Oh, Lady Be Good
TTITLE5=06-Song of The Island
TTITLE6=07-Basie Beat
TTITLE7=08-She's Funny That Way
TTITLE8=09-Count's Organ Blues
TTITLE9=10-K.C. Organ Blues
TTITLE10=11-Blue And Sentimental
TTITLE11=12-Stan Shorthair
TTITLE12=13-As Long As I Live
TTITLE13=14-Royal Garden Blues
TTITLE14=15-Midgets
TTITLE15=16-Party Blues
TTITLE16=17-I'm Confessin'
TTITLE17=18-Shoe Shine Boy (master)
TTITLE18=19-Shoe Shine Boy (take 2)
TTITLE19=20-Sent For You Yesterday
TTITLE20=21-I Want A little Girl
EXTD=
EXTT0=
EXTT1=
EXTT2=
EXTT3=
EXTT4=
EXTT5=
EXTT6=
EXTT7=
EXTT8=
EXTT9=
EXTT10=
EXTT11=
EXTT12=
EXTT13=
EXTT14=
EXTT15=
EXTT16=
EXTT17=
EXTT18=
EXTT19=
EXTT20=
PLAYORDER=
